<svg xmlns="http://www.w3.org/2000/svg" version="1.0" width="500" height="350" preserveAspectRatio="xMidYMid meet"><rect id="backgroundrect" width="100%" height="100%" x="0" y="0" fill="none" stroke="none"/>
<metadata>
Created by potrace 1.13, written by Peter Selinger 2001-2015
</metadata>

<g class="currentLayer"><title>Layer 1</title>
<path d="M44.00000065565109,6.099994875490665 c-14.000000208616257,2.400000035762787 -26.80000039935112,8.100000120699406 -31.40000046789646,14.100000210106373 c-1.3000000193715096,1.8000000268220901 -3.1000000461935997,5.300000078976154 -3.9000000581145287,7.700000114738941 c-1.3000000193715096,3.7000000551342964 -1.3000000193715096,4.90000007301569 -0.20000000298023224,8.100000120699406 c2.2000000327825546,6.3000000938773155 4.200000062584877,8.600000128149986 10.400000154972076,11.900000177323818 c7.200000107288361,3.8000000566244125 14.500000216066837,5.500000081956387 34.70000051707029,8.100000120699406 c25.300000376999378,3.200000047683716 30.4000004529953,4.700000070035458 32.70000048726797,9.700000144541264 c1.1000000163912773,2.400000035762787 0.800000011920929,2.8000000417232513 -2.600000038743019,5.800000086426735 c-5.200000077486038,4.500000067055225 -11.300000168383121,6.000000089406967 -23.20000034570694,5.900000087916851 c-21.1000003144145,-0.30000000447034836 -36.40000054240227,-7.200000107288361 -39.00000058114529,-17.700000263750553 c-0.7000000104308128,-2.500000037252903 -1.0000000149011612,-2.7000000402331352 -6.400000095367432,-2.7000000402331352 l-5.600000083446503,0 l0.20000000298023224,14.200000211596489 l0.10000000149011612,14.300000213086605 l5.900000087916851,0 c5.100000075995922,0 5.800000086426735,-0.20000000298023224 5.800000086426735,-2.0000000298023224 c0,-2.400000035762787 2.500000037252903,-2.500000037252903 10.500000156462193,-0.10000000149011612 c10.500000156462193,3.1000000461935997 24.300000362098217,5.600000083446503 31.20000046491623,5.600000083446503 c16.20000024139881,0 34.50000051409006,-6.600000098347664 40.00000059604645,-14.500000216066837 c7.500000111758709,-10.700000159442425 3.400000050663948,-24.600000366568565 -9.100000135600567,-30.90000046044588 c-8.300000123679638,-4.200000062584877 -22.40000033378601,-7.1000001057982445 -44.10000065714121,-9.100000135600567 c-14.400000214576721,-1.3000000193715096 -20.000000298023224,-3.6000000536441803 -20.000000298023224,-8.100000120699406 c0,-6.800000101327896 16.50000024586916,-10.800000160932541 34.400000512599945,-8.50000012665987 c15.20000022649765,2.1000000312924385 23.400000348687172,6.100000090897083 26.600000396370888,13.40000019967556 c1.700000025331974,3.7000000551342964 2.0000000298023224,3.9000000581145287 6.400000095367432,4.100000061094761 l4.6000000685453415,0.20000000298023224 l0,-12.800000190734863 l0,-12.800000190734863 l-5.000000074505806,0 c-4.300000064074993,0 -5.000000074505806,0.30000000447034836 -5.000000074505806,2.0000000298023224 c0,2.600000038743019 -1.4000000208616257,2.500000037252903 -8.700000129640102,-0.5000000074505806 c-7.1000001057982445,-2.8000000417232513 -24.400000363588333,-6.600000098347664 -30.000000447034836,-6.400000095367432 c-2.1000000312924385,0.10000000149011612 -6.3000000938773155,0.5000000074505806 -9.300000138580799,1.0000000149011612 z" id="svg_2" class=""/>
<path d="M168.50000251084566,6.49999488145113 c-27.60000041127205,4.400000065565109 -46.500000692903996,21.000000312924385 -46.500000692903996,40.70000060647726 c0,10.30000015348196 2.9000000432133675,16.900000251829624 10.900000162422657,24.900000371038914 c11.900000177323818,11.900000177323818 26.600000396370888,17.30000025779009 46.60000069439411,17.30000025779009 c20.10000029951334,0 34.70000051707029,-5.4000000804662704 46.40000069141388,-17.100000254809856 c8.800000131130219,-8.900000132620335 11.500000171363354,-15.300000227987766 10.900000162422657,-26.30000039190054 c-1.2000000178813934,-20.500000305473804 -20.40000030398369,-36.10000053793192 -49.100000731647015,-40.00000059604645 c-9.200000137090683,-1.2000000178813934 -8.800000131130219,-1.2000000178813934 -19.200000286102295,0.5000000074505806 zm23.70000035315752,14.300000213086605 c14.900000222027302,5.4000000804662704 24.00000035762787,19.30000028759241 20.800000309944153,32.100000478327274 c-2.500000037252903,9.900000147521496 -7.700000114738941,15.70000023394823 -18.80000028014183,20.90000031143427 c-4.800000071525574,2.3000000342726707 -7.1000001057982445,2.7000000402331352 -14.70000021904707,2.7000000402331352 c-8.00000011920929,0 -9.700000144541264,-0.4000000059604645 -15.600000232458115,-3.1000000461935997 c-12.000000178813934,-5.700000084936619 -18.30000027269125,-14.500000216066837 -18.200000271201134,-25.900000385940075 c0,-11.800000175833702 8.300000123679638,-22.300000332295895 21.300000317394733,-26.80000039935112 c6.100000090897083,-2.1000000312924385 19.200000286102295,-2.0000000298023224 25.200000375509262,0.10000000149011612 z" id="svg_3" class=""/>
<path d="M247.90000369399786,12.399994969367981 c-0.20000000298023224,0.30000000447034836 -0.30000000447034836,2.500000037252903 -0.10000000149011612,5.000000074505806 l0.4000000059604645,4.6000000685453415 l6.400000095367432,0 l6.400000095367432,0 l-0.20000000298023224,27.200000405311584 l-0.30000000447034836,27.3000004068017 l-6.200000092387199,0.30000000447034836 l-6.3000000938773155,0.30000000447034836 l0,4.400000065565109 l0,4.500000067055225 l22.000000327825546,0 l22.000000327825546,0 l0,-4.500000067055225 l0,-4.400000065565109 l-7.200000107288361,-0.30000000447034836 l-7.300000108778477,-0.30000000447034836 l-0.30000000447034836,-20.800000309944153 c-0.10000000149011612,-11.400000169873238 0,-20.700000308454037 0.30000000447034836,-20.700000308454037 c0.4000000059604645,0 25.80000038444996,22.300000332295895 56.20000083744526,49.30000073462725 c1.700000025331974,1.5000000223517418 3.7000000551342964,1.9000000283122063 10.000000149011612,1.9000000283122063 l7.800000116229057,0 l0.30000000447034836,-30.800000458955765 c0.10000000149011612,-18.30000027269125 0.6000000089406967,-31.20000046491623 1.2000000178813934,-31.800000473856926 c0.5000000074505806,-0.5000000074505806 3.8000000566244125,-1.0000000149011612 7.200000107288361,-1.0000000149011612 l6.3000000938773155,-0.10000000149011612 l0,-5.000000074505806 l0,-5.000000074505806 l-22.000000327825546,0 l-22.000000327825546,0 l0,5.000000074505806 l0,5.000000074505806 l6.400000095367432,0.10000000149011612 c9.100000135600567,0.10000000149011612 9.200000137090683,0.4000000059604645 9.00000013411045,19.10000028461218 c0,8.400000125169754 -0.4000000059604645,15.500000230967999 -0.7000000104308128,15.70000023394823 c-0.4000000059604645,0.20000000298023224 -10.100000150501728,-8.200000122189522 -21.700000323355198,-18.600000277161598 c-11.500000171363354,-10.500000156462193 -23.20000034570694,-20.800000309944153 -25.80000038444996,-22.90000034123659 l-4.90000007301569,-3.9000000581145287 l-18.200000271201134,0 c-10.100000150501728,0 -18.500000275671482,0.20000000298023224 -18.700000278651714,0.4000000059604645 z" id="svg_4" class=""/>
<path d="M376.20000560581684,17.199995040893555 l0.30000000447034836,5.300000078976154 l6.400000095367432,0 l6.400000095367432,0.10000000149011612 l16.900000251829624,18.400000274181366 l16.900000251829624,18.400000274181366 l-0.30000000447034836,8.50000012665987 l-0.30000000447034836,8.600000128149986 l-6.900000102818012,0.5000000074505806 l-6.900000102818012,0.5000000074505806 l0,4.000000059604645 l0,4.000000059604645 l25.80000038444996,0 l25.80000038444996,0 l0.10000000149011612,-4.000000059604645 l0.10000000149011612,-4.000000059604645 l-7.000000104308128,-0.30000000447034836 c-4.000000059604645,-0.20000000298023224 -7.300000108778477,-0.800000011920929 -7.700000114738941,-1.5000000223517418 c-0.4000000059604645,-0.7000000104308128 -0.800000011920929,-4.400000065565109 -0.800000011920929,-8.400000125169754 l0,-7.200000107288361 l10.200000151991844,-10.800000160932541 c25.600000381469727,-27.200000405311584 25.600000381469727,-27.200000405311584 29.300000436604023,-26.600000396370888 c1.9000000283122063,0.30000000447034836 4.6000000685453415,0.20000000298023224 6.000000089406967,-0.10000000149011612 c2.400000035762787,-0.6000000089406967 2.600000038743019,-1.0000000149011612 2.3000000342726707,-5.4000000804662704 l-0.30000000447034836,-4.700000070035458 l-21.000000312924385,0 l-21.000000312924385,0 l0,5.000000074505806 c0,4.800000071525574 0.10000000149011612,5.000000074505806 2.9000000432133675,5.200000077486038 c6.200000092387199,0.5000000074505806 6.000000089406967,1.0000000149011612 -3.500000052154064,11.500000171363354 c-5.200000077486038,5.700000084936619 -9.900000147521496,10.400000154972076 -10.500000156462193,10.600000157952309 c-1.2000000178813934,0.30000000447034836 -19.400000289082527,-19.30000028759241 -19.400000289082527,-20.90000031143427 c0,-0.800000011920929 3.7000000551342964,-1.4000000208616257 6.70000009983778,-1.0000000149011612 c1.0000000149011612,0.10000000149011612 2.400000035762787,-9.500000141561031 1.4000000208616257,-10.500000156462193 c-0.20000000298023224,-0.20000000298023224 -12.10000018030405,-0.4000000059604645 -26.30000039190054,-0.4000000059604645 l-25.900000385940075,0 l0.30000000447034836,5.200000077486038 z" id="svg_5" class=""/>
<path d="M9.00000013411045,176.49999741464853 l0,71.50000106543303 l242.5000036135316,0 l242.5000036135316,0 l0,-71.50000106543303 l0,-71.50000106543303 l-242.5000036135316,0 l-242.5000036135316,0 l0,71.50000106543303 zm79.00000117719173,-27.500000409781933 c10.30000015348196,5.800000086426735 12.200000181794167,17.400000259280205 4.000000059604645,25.00000037252903 l-2.9000000432133675,2.7000000402331352 l3.6000000536441803,2.400000035762787 c5.4000000804662704,3.6000000536441803 7.600000113248825,7.1000001057982445 8.100000120699406,13.300000198185444 c0.6000000089406967,7.500000111758709 -2.2000000327825546,13.300000198185444 -8.100000120699406,16.700000248849392 c-4.000000059604645,2.3000000342726707 -5.000000074505806,2.400000035762787 -25.900000385940075,2.7000000402331352 l-21.800000324845314,0.30000000447034836 l0,-33.100000493228436 l0,-33.20000049471855 l19.30000028759241,0.4000000059604645 c18.30000027269125,0.30000000447034836 19.400000289082527,0.4000000059604645 23.70000035315752,2.8000000417232513 zm78.70000117272139,-0.30000000447034836 c2.2000000327825546,1.3000000193715096 5.100000075995922,3.400000050663948 6.200000092387199,4.90000007301569 c7.500000111758709,9.500000141561031 2.7000000402331352,25.600000381469727 -8.50000012665987,28.60000042617321 c-2.400000035762787,0.7000000104308128 -4.400000065565109,1.600000023841858 -4.400000065565109,2.0000000298023224 c0,0.4000000059604645 4.300000064074993,6.600000098347664 9.500000141561031,13.600000202655792 c5.200000077486038,7.1000001057982445 9.500000141561031,13.200000196695328 9.500000141561031,13.600000202655792 c0,0.4000000059604645 -2.600000038743019,0.6000000089406967 -5.700000084936619,0.4000000059604645 l-5.700000084936619,-0.30000000447034836 l-11.700000174343586,-16.00000023841858 c-6.500000096857548,-8.800000131130219 -11.60000017285347,-16.400000244379044 -11.500000171363354,-16.900000251829624 c0.10000000149011612,-0.5000000074505806 3.1000000461935997,-1.1000000163912773 6.600000098347664,-1.3000000193715096 c7.700000114738941,-0.6000000089406967 11.400000169873238,-2.3000000342726707 13.500000201165676,-6.3000000938773155 c2.9000000432133675,-5.600000083446503 0.800000011920929,-14.200000211596489 -4.200000062584877,-16.900000251829624 c-1.0000000149011612,-0.5000000074505806 -7.300000108778477,-1.1000000163912773 -13.800000205636024,-1.2000000178813934 l-12.000000178813934,-0.30000000447034836 l-0.30000000447034836,29.700000442564487 l-0.20000000298023224,29.700000442564487 l-5.500000081956387,0 l-5.500000081956387,0 l0,-33.100000493228436 l0,-33.100000493228436 l19.80000029504299,0.4000000059604645 c18.0000002682209,0.30000000447034836 20.10000029951334,0.5000000074505806 23.900000356137753,2.500000037252903 zm83.00000123679638,30.100000448524952 c8.400000125169754,17.80000026524067 15.300000227987766,32.50000048428774 15.300000227987766,32.70000048726797 c0,0.30000000447034836 -2.600000038743019,0.5000000074505806 -5.900000087916851,0.5000000074505806 l-5.800000086426735,0 l-4.100000061094761,-9.00000013411045 l-4.200000062584877,-9.00000013411045 l-17.00000025331974,0 c-19.400000289082527,0 -17.400000259280205,-1.0000000149011612 -22.600000336766243,11.200000166893005 l-2.8000000417232513,6.800000101327896 l-5.300000078976154,0 c-2.9000000432133675,0 -5.300000078976154,-0.20000000298023224 -5.300000078976154,-0.4000000059604645 c0,-0.20000000298023224 3.8000000566244125,-8.300000123679638 8.50000012665987,-18.100000269711018 c4.700000070035458,-9.700000144541264 8.50000012665987,-17.80000026524067 8.50000012665987,-17.900000266730785 c0,-0.20000000298023224 3.200000047683716,-6.900000102818012 7.000000104308128,-15.000000223517418 l7.000000104308128,-14.70000021904707 l5.700000084936619,0.30000000447034836 l5.600000083446503,0.30000000447034836 l15.400000229477882,32.30000048130751 zm31.70000047236681,-25.600000381469727 c1.9000000283122063,4.000000059604645 5.900000087916851,12.700000189244747 9.00000013411045,19.30000028759241 c3.1000000461935997,6.600000098347664 7.300000108778477,15.70000023394823 9.400000140070915,20.200000301003456 c2.0000000298023224,4.500000067055225 4.100000061094761,8.100000120699406 4.500000067055225,8.00000011920929 c0.4000000059604645,-0.10000000149011612 3.7000000551342964,-7.000000104308128 7.400000110268593,-15.20000022649765 c3.6000000536441803,-8.300000123679638 8.900000132620335,-20.40000030398369 11.800000175833702,-27.000000402331352 l5.200000077486038,-12.000000178813934 l5.200000077486038,-0.30000000447034836 l5.200000077486038,-0.30000000447034836 l-1.4000000208616257,2.8000000417232513 c-0.800000011920929,1.5000000223517418 -6.500000096857548,13.800000205636024 -12.700000189244747,27.200000405311584 c-6.100000090897083,13.500000201165676 -12.500000186264515,27.10000040382147 -14.100000210106373,30.300000451505184 l-2.9000000432133675,5.800000086426735 l-5.4000000804662704,0 l-5.300000078976154,0 l-12.300000183284283,-25.80000038444996 c-6.70000009983778,-14.100000210106373 -13.700000204145908,-29.000000432133675 -15.600000232458115,-33.00000049173832 l-3.300000049173832,-7.200000107288361 l6.000000089406967,0 l6.000000089406967,0 l3.300000049173832,7.200000107288361 zm87.40000130236149,26.00000038743019 l-0.30000000447034836,33.30000049620867 l-5.200000077486038,0.30000000447034836 l-5.300000078976154,0.30000000447034836 l0,-33.5000004991889 l0,-33.600000500679016 l5.500000081956387,0 l5.500000081956387,0 l-0.20000000298023224,33.20000049471855 zm62.10000092536211,-25.50000037997961 c2.1000000312924385,4.300000064074993 8.700000129640102,18.100000269711018 14.600000217556953,30.800000458955765 c5.900000087916851,12.600000187754631 11.200000166893005,23.400000348687172 11.60000017285347,23.900000356137753 c2.3000000342726707,2.500000037252903 0.800000011920929,3.6000000536441803 -4.90000007301569,3.6000000536441803 l-5.800000086426735,0 l-4.100000061094761,-9.00000013411045 l-4.100000061094761,-9.00000013411045 l-17.00000025331974,0 c-19.500000290572643,0 -17.50000026077032,-1.0000000149011612 -22.70000033825636,11.200000166893005 l-2.8000000417232513,6.800000101327896 l-4.90000007301569,0 c-2.600000038743019,0 -4.800000071525574,-0.5000000074505806 -4.800000071525574,-1.0000000149011612 c0,-0.9000000134110451 20.10000029951334,-44.10000065714121 27.60000041127205,-59.30000088363886 l2.8000000417232513,-5.700000084936619 l5.300000078976154,0 l5.300000078976154,0 l3.9000000581145287,7.700000114738941 z" id="svg_6" class=""/>
<path d="M56.70000084489584,152.59999705851078 c-0.4000000059604645,0.4000000059604645 -0.7000000104308128,5.4000000804662704 -0.7000000104308128,11.10000016540289 l0,10.500000156462193 l12.600000187754631,-0.4000000059604645 l12.600000187754631,-0.30000000447034836 l2.9000000432133675,-3.300000049173832 c4.100000061094761,-4.500000067055225 4.100000061094761,-10.200000151991844 0,-14.300000213086605 c-2.9000000432133675,-2.8000000417232513 -3.200000047683716,-2.9000000432133675 -13.40000019967556,-2.9000000432133675 c-5.800000086426735,0 -11.200000166893005,-0.20000000298023224 -11.900000177323818,-0.5000000074505806 c-0.800000011920929,-0.30000000447034836 -1.700000025331974,-0.20000000298023224 -2.1000000312924385,0.10000000149011612 z" id="svg_7" class=""/>
<path d="M56.20000083744526,193.19999766349792 l0.30000000447034836,12.300000183284283 l12.500000186264515,0 c15.000000223517418,-0.10000000149011612 17.900000266730785,-1.2000000178813934 20.40000030398369,-7.700000114738941 c3.200000047683716,-7.900000117719173 0.10000000149011612,-13.800000205636024 -8.400000125169754,-15.70000023394823 c-2.500000037252903,-0.6000000089406967 -9.100000135600567,-1.1000000163912773 -14.800000220537186,-1.1000000163912773 l-10.30000015348196,0 l0.30000000447034836,12.200000181794167 z" id="svg_8" class=""/>
<path d="M220.2000032812357,171.2999973371625 c-3.400000050663948,7.900000117719173 -6.200000092387199,14.900000222027302 -6.200000092387199,15.500000230967999 c0,0.9000000134110451 3.7000000551342964,1.2000000178813934 13.500000201165676,1.2000000178813934 c9.700000144541264,0 13.500000201165676,-0.30000000447034836 13.500000201165676,-1.2000000178813934 c0,-1.600000023841858 -13.200000196695328,-29.800000444054604 -14.000000208616257,-29.800000444054604 c-0.30000000447034836,0 -3.400000050663948,6.400000095367432 -6.800000101327896,14.300000213086605 z" id="svg_9" class=""/>
<path d="M413.3000061586499,171.49999734014273 c-3.500000052154064,7.900000117719173 -6.3000000938773155,14.900000222027302 -6.3000000938773155,15.400000229477882 c0,1.2000000178813934 26.100000388920307,1.600000023841858 27.200000405311584,0.5000000074505806 c0.7000000104308128,-0.6000000089406967 -12.800000190734863,-29.800000444054604 -13.90000020712614,-30.100000448524952 c-0.5000000074505806,-0.20000000298023224 -3.6000000536441803,6.200000092387199 -7.000000104308128,14.200000211596489 z" id="svg_10" class=""/>









</g></svg>