<?xml version="1.0" encoding="utf-8"?>
<!-- Generator: Adobe Illustrator 21.0.0, SVG Export Plug-In . SVG Version: 6.00 Build 0)  -->
<svg version="1.1" id="Layer_1" xmlns="http://www.w3.org/2000/svg" xmlns:xlink="http://www.w3.org/1999/xlink" x="0px" y="0px"
	 viewBox="0 0 1388.2 876.7" style="enable-background:new 0 0 1388.2 876.7;" xml:space="preserve">
<g>
	<path d="M283.7,559.8c-4.6-1.4-9.4-2.5-14.1-2.7c-15.9-0.4-31.8-0.3-47.7-0.4c-0.5,0-1,0.2-1.5,0.3c0,20.6,0,41,0,61.5
		c0.9,0.1,1.6,0.1,2.4,0.1c14.2,0,28.5,0.1,42.7-0.1c4.3,0,8.7-0.5,13-1.1c10.7-1.4,21.4-9.5,22.8-20.3c0.7-5.2,0.8-10.5,0.3-15.7
		C300.5,570.4,294.3,563,283.7,559.8z"/>
	<path d="M606.9,575.3c25.1,0,49.7,0,74.7,0c-12.4-28.3-24.8-56.2-37.3-84.7C631.6,519.1,619.3,547.1,606.9,575.3z"/>
	<path d="M258.5,538.1c5.1-0.1,10.2-0.4,15.2-1.1c13.4-1.8,21.2-9.3,22.6-21.6c1.1-9.4-1.6-17.1-10.2-22.2
		c-4.5-2.7-9.3-4.5-14.3-4.6c-17.1-0.6-34.1-0.9-51.4-1.3c0,17.3,0,34,0,50.9c1.1,0,2,0,2.9,0C235,538.2,246.7,538.3,258.5,538.1z"
		/>
	<path d="M481.8,287.5c15.5,14.6,34.4,20.3,57.5,20.8c3.1-0.3,8.5-0.6,13.7-1.5c23.2-4.2,41.4-15.8,52.9-36.8
		c8.1-14.8,9.7-30.9,7.4-47.4c-3.1-21.9-13.6-39.4-33-50.8c-18.7-11-38.9-13.7-60-9.8c-17.5,3.2-32.6,10.9-44,24.9
		c-13,16-17.5,34.6-15.7,54.8C462.1,259.5,468.7,275.1,481.8,287.5z"/>
	<path d="M1081.2,575.3c25.5,0,50.6,0,76.2,0c-12.9-28.3-25.7-56.3-38.8-84.8C1105.9,519.1,1093.6,547.1,1081.2,575.3z"/>
	<path d="M1371.4,9.1H17.7c-5,0-9.1,4-9.1,9c0,0,0,0,0,0v748.1c0,5,4.1,9.1,9.1,9.1l259.3,0l8.5,48.7c4.6,26.3,31.3,45.3,63.4,45.3
		h691.3c32.2,0,58.9-19.1,63.4-45.3l8.5-48.7l259.3,0c5,0,9.1-4.1,9.1-9.1V18.2C1380.4,13.2,1376.4,9.1,1371.4,9.1z M698.2,145.5
		c1.4,0,2.6,0,3.8,0c26.7,0,53.3,0,80-0.1c2.7,0,4.6,0.8,6.6,2.6c38.9,35.2,77.9,70.3,116.8,105.5c0.7,0.6,1.4,1.2,2.4,2
		c0.1-0.8,0.2-1.2,0.2-1.6c-0.4-24.8-0.9-49.7-1.3-74.5c0-1.1-0.1-2.3-0.3-3.4c-0.9-5.3-3.5-7.8-8.8-8c-7.5-0.3-15-0.2-22.6-0.2
		c-1.1,0-2.2,0-3.6,0c0-7.5,0-14.6,0-22c34.7,0,69.3,0,104.2,0c0,7.2,0,14.5,0,22c-1.7,0-3.3,0-4.9,0c-6.9,0.1-13.9,0-20.8,0.2
		c-4.8,0.2-6.9,2.1-7.5,6.9c-0.4,2.9-0.4,5.9-0.4,8.8c0.6,45.3,1.2,90.6,1.7,136c0,1.1,0,2.3,0,3.7c-1.1,0.1-2.1,0.1-3.1,0.1
		c-10,0-20,0.1-30-0.1c-1.6,0-3.5-0.8-4.7-1.8c-45.2-40.3-90.4-80.6-135.6-120.9c-0.9-0.8-1.8-1.6-3.2-2.7c0,6.1,0,11.5,0,17
		c0,23.6,0,47.2,0,70.8c0,2.8,0,5.5,0.4,8.3c0.7,4.9,2.8,6.9,7.7,7.1c7.9,0.2,15.8,0.2,23.7,0.2c1.1,0,2.2,0,3.6,0
		c0,7.5,0,14.6,0,22c-34.1,0-68.2,0-102.4,0c0-7.2,0-14.3,0-21.8c1-0.1,2-0.2,3-0.2c6.7,0,13.3,0,20,0c6.1-0.1,8.6-2.4,9.2-8.5
		c0.2-2.1,0.3-4.2,0.3-6.3c0-34.1,0-68.2,0-102.3c0-1.8-0.1-3.6-0.3-5.4c-0.7-6.8-4.3-10.5-11.2-10.9c-6.5-0.4-12.9-0.2-19.4-0.3
		c-1.1,0-2.2,0-3.5,0C698.2,160.2,698.2,153,698.2,145.5z M988.9,467.9c0,56.8,0,113.6,0,170.7c-8.5,0-16.9,0-25.4,0
		c0-56.9,0-113.7,0-170.7C971.9,467.9,980.3,467.9,988.9,467.9z M918.5,467.7c-0.3,1-0.5,1.7-0.9,2.4
		c-24.6,55.2-49.2,110.4-73.7,165.6c-1,2.3-2.1,3.1-4.6,3c-8.2-0.2-16.5-0.1-24.7,0c-1.6,0-2.4-0.5-3.1-2
		C786.8,581,762,525.3,737.2,469.6c-0.2-0.5-0.4-1-0.7-1.8c9.7,0,19,0,28.5,0c21,47.7,42,95.4,63.2,143.6c0.6-1.3,1.1-2.2,1.4-3
		c19.8-46,39.6-92,59.3-138c0.9-2,1.8-2.8,4-2.7C901.3,467.8,909.7,467.7,918.5,467.7z M735.9,638.5c-0.8,0.1-1.4,0.2-2,0.2
		c-7.6,0-15.2-0.1-22.8,0.1c-1.8,0-2.6-0.6-3.2-2.2c-5.5-13.3-11.1-26.6-16.6-39.9c-0.8-2-1.8-2.5-3.9-2.5
		c-28.9,0.1-57.7,0.1-86.6,0c-2.1,0-3,0.6-3.8,2.6c-5.4,13.1-10.9,26.1-16.3,39.1c-0.4,0.9-0.8,1.9-1.2,2.8c-9.4,0-18.7,0-28.4,0
		c0.4-1.1,0.8-2,1.2-2.9c25-55.1,50-110.2,74.9-165.3c0.9-2.1,2-2.8,4.3-2.8c8.8,0.1,17.6,0.1,26.4,0c1.6,0,2.4,0.5,3.1,2
		c24.7,55.6,49.5,111.2,74.2,166.8C735.4,637,735.6,637.6,735.9,638.5z M442.1,161.6c17.9-12.4,38-19.6,59.2-23.7
		c29.3-5.7,58.5-4.9,87.4,2.7c22,5.8,41.6,16.3,57.6,32.7c27,27.7,32.1,71,12.6,105.2c-10.1,17.8-25.1,30.1-43.1,39.1
		c-18.7,9.3-38.6,14.3-59.4,16.1c-6.3,0.6-12.7,0.8-16.4,1c-31.9-0.3-60-5.7-85.9-19.9c-15.3-8.4-28.6-19.2-37.8-34.4
		C391.9,240.2,403.1,188.6,442.1,161.6z M385.7,467.7c1,0,1.9,0,2.8,0c20.3,0,40.5,0,60.8,0c12.9,0,25.7,1.3,37.8,6.2
		c15.3,6.2,25.6,16.7,28.4,33.4c1.6,9.8,1,19.6-2.2,29c-4.6,13.5-14.7,21.3-27.5,26.2c-2.6,1-5.2,1.8-8.2,2.9
		c17.2,24.3,34.2,48.5,51.5,73c-1.2,0.1-1.9,0.1-2.6,0.1c-10.3,0-20.5,0-30.8-0.1c-1.1,0-2.6-0.6-3.2-1.4
		c-19.9-28.6-39.8-57.2-59.7-85.9c-0.2-0.4-0.4-0.8-0.9-1.6c3.8,0,7.2,0.2,10.5,0c7.2-0.4,14.5-0.3,21.5-1.6
		c14.3-2.7,22.8-12.9,23.5-27.5c0.2-3.9,0.1-8-0.8-11.8c-2.3-10.4-9.7-16-19.5-18.7c-4-1.1-8.2-1.5-12.3-2.1
		c-1.8-0.3-3.7-0.2-5.5-0.2c-12.5,0-25,0-37.8,0c0,50.3,0,100.5,0,150.9c-8.9,0-17.2,0-25.7,0C385.7,581.6,385.7,524.8,385.7,467.7z
		 M171.3,314.5c-3.8-1.5-6.1,0-6.3,4.2c-0.1,2.7,0,5.5,0,8.5c-9.2,0-18.2,0-27.5,0c0-23.2,0-46.5,0-69.8c8.1,0,16.2,0,24.5,0
		c0.2,1.7,0.4,3.5,0.7,5.2c1.5,9.7,7,16.9,14.3,23c9.5,7.9,20.8,12.2,32.6,15.2c17.6,4.5,35.4,7.4,53.6,6.2
		c13.2-0.8,26-3.2,38.2-8.6c8.6-3.8,12.8-9.9,12.6-18.2c-0.1-6.8-3.3-12-9.6-14.2c-6.6-2.3-13.5-4.2-20.4-5.1
		c-22.7-3-45.6-5.2-68.3-8.2c-15.8-2.1-31.8-3.9-46.8-9.6c-12.6-4.7-23.6-11.7-30.5-23.6c-11.1-19.1-10.7-46.6,15.6-63.9
		c13.1-8.6,27.6-13.6,42.8-16.8c40.6-8.6,79.8-3.8,117.7,12.9c1.4,0.6,2.7,1.4,4.1,2c3.3,1.3,5.7-0.2,5.9-3.8c0.1-1,0-2.1,0-3.1
		c0-1,0-2.1,0-3.2c8.5,0,16.6,0,24.9,0c0,20.2,0,40.3,0,60.6c-7.4,0-14.8,0-22.3,0c-1.6-6.4-4.4-12.3-8.5-17.5
		c-6.2-7.8-14.7-12.3-23.8-15.6c-30.6-11.4-61.8-13-93.4-4.9c-5.2,1.3-10.3,4-14.9,6.8c-4.9,3-7.6,7.7-7.3,13.7
		c0.2,5.6,4.3,10.3,11.1,11.8c7.8,1.7,15.7,3,23.6,4.1c27.2,3.6,54.4,6.7,81.5,10.4c13.9,1.9,27.3,6,39.6,12.9
		c21.7,12.2,32,36.3,25.3,59.3c-3.9,13.5-13.3,22.5-25,29.5c-14.4,8.5-30.3,12.8-46.5,15.7c-16.6,3-33.3,3.7-50.1,2
		c-22.8-2.3-44.9-8-66.1-17C172.2,314.9,171.8,314.7,171.3,314.5z M276.1,637.9c-16.1,0.7-32.2,0.6-48.3,0.7c-11,0.1-22,0-33.3,0
		c0-57.1,0-113.8,0-170.8c0.9-0.1,1.7-0.2,2.5-0.2c21.8,0,43.7-0.1,65.5,0c14.5,0.1,28.5,2.6,41.3,9.9c11.4,6.5,17.5,16.5,18.2,29.6
		c0.2,4.3,0.1,8.8-0.8,13c-3.1,15-13.6,22.4-27.6,25.8c-0.9,0.2-1.8,0.4-2.7,0.5c-0.2,0-0.3,0.2-0.6,0.3c4,1.2,7.8,2.3,11.6,3.7
		c15.2,5.3,25.2,15.7,28.1,31.5c3.2,17.3-1.6,32.1-16.5,42.9C302.3,633.1,289.7,637.3,276.1,637.9z M1062.5,816.9
		c-0.8,4.5-9.7,10.8-22.3,10.8H348.8c-12.7,0-21.5-6.3-22.3-10.8l-7.2-41.6l750.5,0L1062.5,816.9z M1184.3,638.5
		c-0.6,0-1.5-1.2-1.8-2c-5.2-13.2-10.4-26.5-15.4-39.8c-0.8-2.1-1.8-2.7-4-2.7c-28.8,0.1-57.5,0.1-86.3,0c-2.2,0-3.2,0.7-4,2.7
		c-5.4,13.2-11,26.4-16.5,39.7c-0.7,1.7-1.5,2.3-3.4,2.3c-9-0.1-18.1-0.1-27.5-0.1c0.5-1.1,0.8-1.9,1.2-2.8
		c25.5-55.3,51.1-110.5,76.6-165.8c0.8-1.7,1.6-2.5,3.7-2.5c8.4,0.1,16.8,0.1,25.3,0c1.7,0,2.6,0.5,3.3,2.1
		c25.1,55.5,50.3,110.9,75.4,166.3c0.3,0.7,0.6,1.5,1,2.6C1202.3,638.6,1193.3,638.7,1184.3,638.5z M1269.7,167.5
		c-0.8,0.1-1.8,0.2-2.7,0.2c-6.6,0-13.1,0.2-19.7,0c-6.9-0.2-12.2,2.5-16.7,7.6c-14.7,16.9-29.6,33.8-44.4,50.7
		c-7.5,8.6-15,17.2-22.6,25.7c-1.6,1.8-2.2,3.6-2.2,5.9c0.1,11.5,0,23,0.1,34.6c0,6.4,2.3,8.8,8.7,8.9c8.4,0.1,16.7,0,25.4,0
		c0,7.6,0,14.8,0,22.2c-40.6,0-81,0-121.6,0c0-7.2,0-14.4,0-21.9c1-0.1,2-0.1,3-0.2c7.3,0,14.7,0,22-0.1c5.4-0.1,7.8-2.4,8-7.9
		c0.2-10.5-0.1-21,0.2-31.4c0.1-4.5-1.2-7.9-4.2-11.2c-21.5-24.2-42.9-48.5-64.3-72.8c-6-6.8-13.2-10.6-22.6-10.1
		c-6.1,0.3-12.2,0.1-18.4,0.1c0-7.4,0-14.6,0-22c40.7,0,81.4,0,122.3,0c0,7.1,0,14.3,0,21.9c-3.8,0-7.5,0-11.3,0c-1,0-2-0.2-2.8,0.1
		c-1.5,0.6-3.5,1.2-4.1,2.4c-0.5,1,0,3.3,0.9,4.4c13.8,16.7,27.6,33.2,41.5,49.8c0.2,0.2,0.4,0.3,0.9,0.6c0.5-0.5,1.1-0.9,1.6-1.5
		c13.5-15.8,26.9-31.6,40.4-47.4c1.5-1.8,2.6-3.6,1.5-5.9c-1.1-2.3-3.2-2.4-5.4-2.4c-4.5,0-8.9,0-13.6,0c0-7.4,0-14.6,0-22
		c33.3,0,66.6,0,100.2,0C1269.7,152.8,1269.7,159.9,1269.7,167.5z"/>
</g>
</svg>
