<?xml version="1.0" encoding="utf-8"?>
<svg version="1.1" id="Layer_1" xmlns="http://www.w3.org/2000/svg" xmlns:xlink="http://www.w3.org/1999/xlink" x="0px" y="0px"
	 viewBox="0 0 1417.3 746.1" style="enable-background:new 0 0 1417.3 746.1;" xml:space="preserve">
<g id="BxNH4p_1_">
	<g>
		<path d="M-1254,11.1c10.3,0,20.2,0,30.3,0c0,24.6,0,49.1,0,73.8c-9,0-18,0-27.1,0c-2-7.8-5.3-15-10.4-21.3
			c-7.6-9.5-17.9-14.9-29-19c-37.2-13.9-75.2-15.8-113.7-6c-6.4,1.6-12.5,4.9-18.2,8.3c-5.9,3.6-9.3,9.4-8.9,16.6
			c0.3,6.8,5.2,12.5,13.5,14.4c9.5,2.1,19.1,3.7,28.7,4.9c33.1,4.3,66.2,8.2,99.2,12.7c16.9,2.3,33.2,7.3,48.3,15.8
			c26.4,14.8,38.9,44.2,30.8,72.1c-4.8,16.5-16.2,27.4-30.5,35.9c-17.5,10.4-36.8,15.6-56.6,19.1c-20.2,3.6-40.6,4.5-61,2.4
			c-27.8-2.8-54.6-9.8-80.4-20.6c-0.5-0.2-1.1-0.5-1.6-0.7c-4.6-1.8-7.5,0-7.6,5.1c-0.1,3.3,0,6.7,0,10.3c-11.2,0-22.2,0-33.5,0
			c0-28.3,0-56.5,0-85c9.9,0,19.7,0,29.9,0c0.3,2.1,0.5,4.2,0.9,6.4c1.9,11.8,8.5,20.5,17.4,27.9c11.6,9.6,25.3,14.8,39.6,18.5
			c21.4,5.5,43.1,9,65.3,7.5c16.1-1,31.7-4,46.5-10.5c10.4-4.6,15.5-12.1,15.4-22.2c-0.1-8.3-4-14.6-11.7-17.3
			c-8-2.8-16.4-5.1-24.8-6.2c-27.7-3.7-55.5-6.4-83.1-10c-19.3-2.5-38.7-4.8-57-11.7c-15.3-5.8-28.7-14.3-37.2-28.8
			c-13.6-23.2-13-56.7,19-77.7c15.9-10.5,33.6-16.5,52.1-20.4c49.4-10.5,97.2-4.7,143.3,15.7c1.7,0.7,3.3,1.7,5,2.4
			c4.1,1.6,6.9-0.3,7.2-4.6c0.1-1.3,0-2.5,0-3.8C-1254,13.8-1254,12.6-1254,11.1z"/>
		<path d="M-715.4,77.7c0,7.4,0,14,0,20.7c0,28.7,0,57.5,0,86.2c0,3.4,0,6.7,0.5,10.1c0.9,6,3.4,8.4,9.4,8.6
			c9.6,0.3,19.2,0.2,28.9,0.3c1.4,0,2.7,0,4.3,0c0,9.1,0,17.8,0,26.8c-41.5,0-83,0-124.6,0c0-8.8,0-17.4,0-26.6
			c1.2-0.1,2.4-0.2,3.6-0.2c8.1,0,16.2,0,24.3,0c7.5-0.1,10.5-2.9,11.2-10.3c0.2-2.5,0.4-5.1,0.4-7.6c0-41.5,0-83,0-124.5
			c0-2.2-0.1-4.4-0.3-6.6c-0.9-8.3-5.2-12.8-13.7-13.3c-7.9-0.4-15.8-0.3-23.6-0.4c-1.4,0-2.7,0-4.3,0c0-9.2,0-17.9,0-27.1
			c1.7,0,3.1,0,4.6,0c32.5,0,64.9,0,97.4-0.1c3.3,0,5.6,1,8,3.1c47.4,42.8,94.8,85.6,142.2,128.4c0.8,0.8,1.7,1.5,2.9,2.5
			c0.1-0.9,0.3-1.4,0.3-2c-0.5-30.2-1.1-60.5-1.6-90.7c0-1.4-0.1-2.8-0.3-4.2c-1.1-6.4-4.2-9.5-10.7-9.7c-9.1-0.3-18.3-0.2-27.5-0.3
			c-1.4,0-2.7,0-4.3,0c0-9.1,0-17.8,0-26.8c42.2,0,84.4,0,126.8,0c0,8.8,0,17.6,0,26.8c-2.1,0-4,0-6,0c-8.5,0.1-16.9,0-25.4,0.3
			c-5.9,0.2-8.4,2.6-9.2,8.4c-0.5,3.5-0.5,7.2-0.4,10.7c0.7,55.2,1.4,110.3,2.1,165.5c0,1.4,0,2.8,0,4.6c-1.3,0.1-2.6,0.2-3.8,0.2
			c-12.2,0-24.3,0.1-36.5-0.1c-2,0-4.3-0.9-5.8-2.3c-55.1-49-110-98.1-165-147.2C-712.5,80.1-713.7,79.2-715.4,77.7z"/>
		<path d="M-991.7,244.1c-38.9-0.4-73-6.9-104.5-24.2c-18.7-10.2-34.8-23.4-46-41.9c-29.7-49-16.1-111.8,31.3-144.7
			c21.8-15.1,46.2-23.8,72-28.9c35.7-7,71.2-5.9,106.4,3.3c26.8,7,50.7,19.8,70.2,39.8c32.9,33.7,39,86.4,15.4,128
			c-12.3,21.6-30.6,36.7-52.5,47.6c-22.8,11.3-47,17.4-72.3,19.7C-979.5,243.6-987.2,243.9-991.7,244.1z M-992.6,212
			c3.8-0.4,10.3-0.7,16.7-1.8c28.2-5.1,50.4-19.2,64.4-44.8c9.9-18.1,11.9-37.7,9-57.7c-3.8-26.7-16.6-47.9-40.2-61.8
			c-22.7-13.4-47.4-16.7-73.1-11.9c-21.2,3.9-39.7,13.3-53.6,30.3c-15.8,19.4-21.2,42.1-19.1,66.7c1.9,21.6,9.9,40.7,25.9,55.7
			C-1043.7,204.4-1020.7,211.4-992.6,212z"/>
		<path d="M-193.7,203.3c0,9.3,0,18,0,27c-49.4,0-98.6,0-148.1,0c0-8.8,0-17.5,0-26.7c1.2-0.1,2.4-0.2,3.6-0.2
			c8.9,0,17.8,0,26.8-0.1c6.5-0.1,9.5-2.9,9.7-9.6c0.3-12.7-0.1-25.5,0.3-38.2c0.2-5.5-1.4-9.6-5.1-13.7
			c-26.2-29.4-52.2-59.1-78.2-88.6c-7.3-8.3-16.1-12.9-27.5-12.3c-7.4,0.4-14.8,0.1-22.4,0.1c0-9.1,0-17.8,0-26.8
			c49.6,0,99.1,0,148.9,0c0,8.7,0,17.4,0,26.7c-4.6,0-9.2,0-13.8,0c-1.2,0-2.4-0.3-3.5,0.1c-1.8,0.7-4.2,1.4-5,2.9
			c-0.7,1.3,0.1,4,1.1,5.3c16.7,20.3,33.7,40.4,50.5,60.6c0.2,0.3,0.5,0.4,1,0.8c0.6-0.6,1.3-1.2,1.9-1.8
			c16.4-19.2,32.8-38.5,49.2-57.6c1.9-2.2,3.2-4.3,1.9-7.2c-1.3-2.8-3.9-2.9-6.5-2.9c-5.4,0-10.9,0-16.6,0c0-9,0-17.7,0-26.8
			c40.5,0,81.1,0,121.9,0c0,8.6,0,17.3,0,26.4c-1,0.1-2.2,0.3-3.3,0.3c-8,0-16,0.2-24,0c-8.4-0.2-14.9,3-20.4,9.3
			c-18,20.6-36,41.1-54.1,61.7c-9.2,10.5-18.3,21-27.5,31.3c-1.9,2.1-2.7,4.3-2.7,7.2c0.1,14,0,28,0.1,42.1
			c0,7.8,2.9,10.8,10.6,10.9C-214.5,203.4-204.3,203.3-193.7,203.3z"/>
	</g>
</g>
<rect x="-1504.8" y="274.1" width="1417.3" height="472"/>
<g id="jUW10D_1_">
	<g>
		<path d="M-1412.3,614.1c0-69.5,0-138.6,0-207.9c1-0.1,2-0.2,3-0.2c26.6,0,53.1-0.1,79.7,0.1c17.7,0.1,34.7,3.1,50.3,12.1
			c13.8,7.9,21.3,20.1,22.2,36c0.3,5.2,0.1,10.7-1,15.8c-3.8,18.2-16.5,27.2-33.7,31.4c-1.1,0.3-2.2,0.4-3.3,0.7
			c-0.2,0-0.4,0.2-0.8,0.4c4.8,1.5,9.5,2.8,14.2,4.5c18.5,6.5,30.6,19.1,34.2,38.3c3.9,21.1-2,39.1-20,52.3
			c-13.6,10-29,15.1-45.5,15.9c-19.6,0.9-39.2,0.7-58.7,0.8C-1385.1,614.2-1398.5,614.1-1412.3,614.1z M-1380.9,589.6
			c1.1,0.1,2,0.2,2.9,0.2c17.3,0,34.7,0.1,52-0.1c5.3-0.1,10.6-0.6,15.8-1.3c13-1.7,26-11.6,27.8-24.8c0.8-6.3,1-12.8,0.4-19.1
			c-1.3-13.5-8.9-22.4-21.8-26.3c-5.5-1.7-11.4-3.1-17.2-3.2c-19.4-0.5-38.7-0.4-58.1-0.5c-0.6,0-1.3,0.3-1.9,0.4
			C-1380.9,539.8-1380.9,564.7-1380.9,589.6z M-1380.9,491.8c1.3,0,2.5,0,3.6,0c14.3,0,28.6,0.1,42.9-0.1c6.2-0.1,12.4-0.5,18.5-1.3
			c16.3-2.2,25.8-11.3,27.5-26.3c1.3-11.4-1.9-20.8-12.4-27.1c-5.5-3.3-11.3-5.4-17.5-5.7c-20.8-0.8-41.5-1.1-62.6-1.6
			C-1380.9,450.9-1380.9,471.2-1380.9,491.8z"/>
		<path d="M-1148.2,614c-10.8,0-20.9,0-31.3,0c0-69.3,0-138.5,0-208c1.2,0,2.3,0,3.4,0c24.7,0,49.3,0,74,0c15.7,0,31.3,1.6,46,7.6
			c18.6,7.5,31.1,20.3,34.5,40.7c2,12,1.2,23.8-2.7,35.3c-5.6,16.4-17.9,26-33.5,31.9c-3.1,1.2-6.3,2.2-10,3.5
			c20.9,29.6,41.7,59.1,62.7,88.9c-1.4,0.1-2.3,0.2-3.2,0.2c-12.5,0-25,0.1-37.5-0.1c-1.3,0-3.2-0.7-3.9-1.7
			c-24.3-34.8-48.5-69.7-72.6-104.6c-0.3-0.4-0.5-0.9-1.1-1.9c4.6,0,8.7,0.2,12.8,0c8.7-0.5,17.6-0.4,26.2-2
			c17.4-3.3,27.8-15.7,28.7-33.5c0.2-4.8,0.1-9.8-1-14.4c-2.8-12.7-11.8-19.5-23.8-22.8c-4.8-1.3-9.9-1.8-14.9-2.5
			c-2.2-0.3-4.5-0.2-6.7-0.2c-15.2,0-30.4,0-46,0C-1148.2,491.6-1148.2,552.7-1148.2,614z"/>
		<path d="M-943.6,614c-11.4,0-22.8,0-34.6,0c0.5-1.3,0.9-2.4,1.4-3.5c30.4-67.1,60.9-134.1,91.2-201.2c1.1-2.5,2.4-3.4,5.2-3.4
			c10.7,0.2,21.4,0.1,32.1,0c1.9,0,2.9,0.6,3.8,2.4c30.1,67.7,60.2,135.4,90.4,203.1c0.3,0.7,0.6,1.4,1,2.5
			c-0.9,0.1-1.7,0.2-2.4,0.2c-9.2,0-18.5-0.1-27.7,0.1c-2.2,0-3.2-0.7-3.9-2.7c-6.7-16.2-13.6-32.3-20.2-48.6
			c-1-2.4-2.2-3.1-4.7-3.1c-35.1,0.1-70.3,0.1-105.4,0c-2.5,0-3.7,0.7-4.7,3.1c-6.5,15.9-13.2,31.7-19.9,47.6
			C-942.6,611.7-943.1,612.8-943.6,614z M-864.8,433.8c-15.3,34.8-30.4,68.9-45.4,103.2c30.5,0,60.5,0,90.9,0
			C-834.5,502.6-849.5,468.6-864.8,433.8z"/>
		<path d="M-400.9,614.1c0.6-1.4,1-2.4,1.4-3.4c31.1-67.3,62.2-134.5,93.2-201.8c1-2.1,2-3,4.4-3c10.2,0.2,20.5,0.1,30.7,0
			c2.1,0,3.2,0.6,4.1,2.6c30.6,67.5,61.2,135,91.8,202.5c0.4,0.9,0.7,1.8,1.2,3.1c-11.4,0-22.4,0-33.4-0.1c-0.7,0-1.8-1.4-2.2-2.4
			c-6.3-16.1-12.6-32.2-18.7-48.4c-1-2.6-2.2-3.3-4.9-3.3c-35,0.1-70,0.1-105.1,0c-2.7,0-3.9,0.8-4.9,3.3
			c-6.6,16.1-13.4,32.2-20.1,48.3c-0.9,2.1-1.9,2.8-4.2,2.8C-378.4,614-389.5,614.1-400.9,614.1z M-332.9,537c31.1,0,61.6,0,92.7,0
			c-15.8-34.4-31.3-68.5-47.2-103.2C-302.8,468.6-317.8,502.6-332.9,537z"/>
		<path d="M-752.5,406.1c11.8,0,23.2,0,34.7,0c25.5,58.1,51.1,116.1,76.9,174.8c0.8-1.6,1.3-2.6,1.8-3.7c24.1-56,48.2-112,72.2-168
			c1-2.4,2.2-3.4,4.9-3.3c10.2,0.2,20.5,0.1,31.1,0.1c-0.4,1.2-0.7,2.1-1,2.9c-29.9,67.2-59.9,134.3-89.7,201.5
			c-1.2,2.8-2.6,3.8-5.7,3.7c-10-0.2-20-0.1-30.1,0c-2,0-2.9-0.6-3.7-2.4c-30.1-67.8-60.3-135.6-90.5-203.4
			C-752,407.7-752.2,407.1-752.5,406.1z"/>
		<path d="M-445.2,614c-10.4,0-20.5,0-30.9,0c0-69.3,0-138.4,0-207.8c10.2,0,20.4,0,30.9,0C-445.2,475.4-445.2,544.5-445.2,614z"/>
	</g>
</g>
<g id="BxNH4p_2_">
	<g>
		<path d="M250.8,11.1c10.3,0,20.2,0,30.3,0c0,24.6,0,49.1,0,73.8c-9,0-18,0-27.1,0c-2-7.8-5.3-15-10.4-21.3
			c-7.6-9.5-17.9-14.9-29-19c-37.2-13.9-75.2-15.8-113.7-6c-6.4,1.6-12.5,4.9-18.2,8.3c-5.9,3.6-9.3,9.4-8.9,16.6
			c0.3,6.8,5.2,12.5,13.5,14.4c9.5,2.1,19.1,3.7,28.7,4.9c33.1,4.3,66.2,8.2,99.2,12.7c16.9,2.3,33.2,7.3,48.3,15.8
			c26.4,14.8,38.9,44.2,30.8,72.1c-4.8,16.5-16.2,27.4-30.5,35.9c-17.5,10.4-36.8,15.6-56.6,19.1c-20.2,3.6-40.6,4.5-61,2.4
			c-27.8-2.8-54.6-9.8-80.4-20.6c-0.5-0.2-1.1-0.5-1.6-0.7c-4.6-1.8-7.5,0-7.6,5.1c-0.1,3.3,0,6.7,0,10.3c-11.2,0-22.2,0-33.5,0
			c0-28.3,0-56.5,0-85c9.9,0,19.7,0,29.9,0c0.3,2.1,0.5,4.2,0.9,6.4c1.9,11.8,8.5,20.5,17.4,27.9c11.6,9.6,25.3,14.8,39.6,18.5
			c21.4,5.5,43.1,9,65.3,7.5c16.1-1,31.7-4,46.5-10.5c10.4-4.6,15.5-12.1,15.4-22.2c-0.1-8.3-4-14.6-11.7-17.3
			c-8-2.8-16.4-5.1-24.8-6.2c-27.7-3.7-55.5-6.4-83.1-10c-19.3-2.5-38.7-4.8-57-11.7c-15.3-5.8-28.7-14.3-37.2-28.8
			c-13.6-23.2-13-56.7,19-77.7C59.2,15.3,76.9,9.3,95.4,5.4C144.8-5.1,192.5,0.7,238.6,21c1.7,0.7,3.3,1.7,5,2.4
			c4.1,1.6,6.9-0.3,7.2-4.6c0.1-1.3,0-2.5,0-3.8C250.8,13.8,250.8,12.6,250.8,11.1z"/>
		<path d="M789.4,77.7c0,7.4,0,14,0,20.7c0,28.7,0,57.5,0,86.2c0,3.4,0,6.7,0.5,10.1c0.9,6,3.4,8.4,9.4,8.6
			c9.6,0.3,19.2,0.2,28.9,0.3c1.4,0,2.7,0,4.3,0c0,9.1,0,17.8,0,26.8c-41.5,0-83,0-124.6,0c0-8.8,0-17.4,0-26.6
			c1.2-0.1,2.4-0.2,3.6-0.2c8.1,0,16.2,0,24.3,0c7.5-0.1,10.5-2.9,11.2-10.3c0.2-2.5,0.4-5.1,0.4-7.6c0-41.5,0-83,0-124.5
			c0-2.2-0.1-4.4-0.3-6.6c-0.9-8.3-5.2-12.8-13.7-13.3c-7.9-0.4-15.8-0.3-23.6-0.4c-1.4,0-2.7,0-4.3,0c0-9.2,0-17.9,0-27.1
			c1.7,0,3.1,0,4.6,0c32.5,0,64.9,0,97.4-0.1c3.3,0,5.6,1,8,3.1c47.4,42.8,94.8,85.6,142.2,128.4c0.8,0.8,1.7,1.5,2.9,2.5
			c0.1-0.9,0.3-1.4,0.3-2c-0.5-30.2-1.1-60.5-1.6-90.7c0-1.4-0.1-2.8-0.3-4.2c-1.1-6.4-4.2-9.5-10.7-9.7c-9.1-0.3-18.3-0.2-27.5-0.3
			c-1.4,0-2.7,0-4.3,0c0-9.1,0-17.8,0-26.8c42.2,0,84.4,0,126.8,0c0,8.8,0,17.6,0,26.8c-2.1,0-4,0-6,0c-8.5,0.1-16.9,0-25.4,0.3
			c-5.9,0.2-8.4,2.6-9.2,8.4c-0.5,3.5-0.5,7.2-0.4,10.7c0.7,55.2,1.4,110.3,2.1,165.5c0,1.4,0,2.8,0,4.6c-1.3,0.1-2.6,0.2-3.8,0.2
			c-12.2,0-24.3,0.1-36.5-0.1c-2,0-4.3-0.9-5.8-2.3c-55.1-49-110-98.1-165-147.2C792.3,80.1,791.1,79.2,789.4,77.7z"/>
		<path d="M513.1,244.1c-38.9-0.4-73-6.9-104.5-24.2c-18.7-10.2-34.8-23.4-46-41.9c-29.7-49-16.1-111.8,31.3-144.7
			c21.8-15.1,46.2-23.8,72-28.9c35.7-7,71.2-5.9,106.4,3.3c26.8,7,50.7,19.8,70.2,39.8c32.9,33.7,39,86.4,15.4,128
			c-12.3,21.6-30.6,36.7-52.5,47.6c-22.8,11.3-47,17.4-72.3,19.7C525.4,243.6,517.6,243.9,513.1,244.1z M512.2,212
			c3.8-0.4,10.3-0.7,16.7-1.8c28.2-5.1,50.4-19.2,64.4-44.8c9.9-18.1,11.9-37.7,9-57.7c-3.8-26.7-16.6-47.9-40.2-61.8
			c-22.7-13.4-47.4-16.7-73.1-11.9c-21.2,3.9-39.7,13.3-53.6,30.3c-15.8,19.4-21.2,42.1-19.1,66.7c1.9,21.6,9.9,40.7,25.9,55.7
			C461.1,204.4,484.2,211.4,512.2,212z"/>
		<path d="M1311.1,203.3c0,9.3,0,18,0,27c-49.4,0-98.6,0-148.1,0c0-8.8,0-17.5,0-26.7c1.2-0.1,2.4-0.2,3.6-0.2
			c8.9,0,17.8,0,26.8-0.1c6.5-0.1,9.5-2.9,9.7-9.6c0.3-12.7-0.1-25.5,0.3-38.2c0.2-5.5-1.4-9.6-5.1-13.7
			c-26.2-29.4-52.2-59.1-78.2-88.6c-7.3-8.3-16.1-12.9-27.5-12.3c-7.4,0.4-14.8,0.1-22.4,0.1c0-9.1,0-17.8,0-26.8
			c49.6,0,99.1,0,148.9,0c0,8.7,0,17.4,0,26.7c-4.6,0-9.2,0-13.8,0c-1.2,0-2.4-0.3-3.5,0.1c-1.8,0.7-4.2,1.4-5,2.9
			c-0.7,1.3,0.1,4,1.1,5.3c16.7,20.3,33.7,40.4,50.5,60.6c0.2,0.3,0.5,0.4,1,0.8c0.6-0.6,1.3-1.2,1.9-1.8
			c16.4-19.2,32.8-38.5,49.2-57.6c1.9-2.2,3.2-4.3,1.9-7.2c-1.3-2.8-3.9-2.9-6.5-2.9c-5.4,0-10.9,0-16.6,0c0-9,0-17.7,0-26.8
			c40.5,0,81.1,0,121.9,0c0,8.6,0,17.3,0,26.4c-1,0.1-2.2,0.3-3.3,0.3c-8,0-16,0.2-24,0c-8.4-0.2-14.9,3-20.4,9.3
			c-18,20.6-36,41.1-54.1,61.7c-9.2,10.5-18.3,21-27.5,31.3c-1.9,2.1-2.7,4.3-2.7,7.2c0.1,14,0,28,0.1,42.1
			c0,7.8,2.9,10.8,10.6,10.9C1290.3,203.4,1300.5,203.3,1311.1,203.3z"/>
	</g>
</g>
<g>
	<path d="M170.4,491.7c6.2-0.1,12.4-0.5,18.5-1.3c16.3-2.2,25.8-11.3,27.5-26.3c1.3-11.4-1.9-20.8-12.4-27.1
		c-5.5-3.3-11.3-5.4-17.5-5.7c-20.8-0.8-41.5-1.1-62.6-1.6c0,21.1,0,41.4,0,62c1.3,0,2.5,0,3.6,0
		C141.8,491.8,156.1,491.9,170.4,491.7z"/>
	<path d="M201.1,518.2c-5.5-1.7-11.4-3.1-17.2-3.2c-19.4-0.5-38.7-0.4-58.1-0.5c-0.6,0-1.3,0.3-1.9,0.4c0,25,0,49.9,0,74.8
		c1.1,0.1,2,0.2,2.9,0.2c17.3,0,34.7,0.1,52-0.1c5.3-0.1,10.6-0.6,15.8-1.3c13-1.7,26-11.6,27.8-24.8c0.8-6.3,1-12.8,0.4-19.1
		C221.6,531,214,522.1,201.1,518.2z"/>
	<path d="M594.5,537c30.5,0,60.5,0,90.9,0c-15.2-34.4-30.1-68.4-45.5-103.2C624.6,468.6,609.6,502.7,594.5,537z"/>
	<path d="M1171.9,537c31.1,0,61.6,0,92.7,0c-15.8-34.4-31.3-68.5-47.2-103.2C1202,468.6,1187,502.6,1171.9,537z"/>
	<path d="M0,274.1v472h1417.3v-472H0z M237.3,597.4c-13.6,10-29,15.1-45.5,15.9c-19.6,0.9-39.2,0.7-58.7,0.8
		c-13.4,0.1-26.8,0-40.5,0c0-69.5,0-138.6,0-207.9c1-0.1,2-0.2,3-0.2c26.6,0,53.1-0.1,79.7,0.1c17.7,0.1,34.7,3.1,50.3,12.1
		c13.8,7.9,21.3,20.1,22.2,36c0.3,5.2,0.1,10.7-1,15.8c-3.8,18.2-16.5,27.2-33.7,31.4c-1.1,0.3-2.2,0.4-3.3,0.7
		c-0.2,0-0.4,0.2-0.8,0.4c4.8,1.5,9.5,2.8,14.2,4.5c18.5,6.5,30.6,19.1,34.2,38.3C261.3,566.2,255.4,584.1,237.3,597.4z
		 M496.6,614.1c-12.5,0-25,0.1-37.5-0.1c-1.3,0-3.2-0.7-3.9-1.7c-24.3-34.8-48.5-69.7-72.6-104.6c-0.3-0.4-0.5-0.9-1.1-1.9
		c4.6,0,8.7,0.2,12.8,0c8.7-0.5,17.6-0.4,26.2-2c17.4-3.3,27.8-15.7,28.7-33.5c0.2-4.8,0.1-9.8-1-14.4
		c-2.8-12.7-11.8-19.5-23.8-22.8c-4.8-1.3-9.9-1.8-14.9-2.5c-2.2-0.3-4.5-0.2-6.7-0.2c-15.2,0-30.4,0-46,0c0,61.3,0,122.3,0,183.7
		c-10.8,0-20.9,0-31.3,0c0-69.3,0-138.5,0-208c1.2,0,2.3,0,3.4,0c24.7,0,49.3,0,74,0c15.7,0,31.3,1.6,46,7.6
		c18.6,7.5,31.1,20.3,34.5,40.7c2,12,1.2,23.8-2.7,35.3c-5.6,16.4-17.9,26-33.5,31.9c-3.1,1.2-6.3,2.2-10,3.5
		c20.9,29.6,41.7,59.1,62.7,88.9C498.3,614,497.4,614.1,496.6,614.1z M749.2,614.1c-9.2,0-18.5-0.1-27.7,0.1c-2.2,0-3.2-0.7-3.9-2.7
		c-6.7-16.2-13.6-32.3-20.2-48.6c-1-2.4-2.2-3.1-4.7-3.1c-35.1,0.1-70.3,0.1-105.4,0c-2.5,0-3.7,0.7-4.7,3.1
		c-6.5,15.9-13.2,31.7-19.9,47.6c-0.5,1.1-1,2.3-1.5,3.4c-11.4,0-22.8,0-34.6,0c0.5-1.3,0.9-2.4,1.4-3.5
		c30.4-67.1,60.9-134.1,91.2-201.2c1.1-2.5,2.4-3.4,5.2-3.4c10.7,0.2,21.4,0.1,32.1,0c1.9,0,2.9,0.6,3.8,2.4
		c30.1,67.7,60.2,135.4,90.4,203.1c0.3,0.7,0.6,1.4,1,2.5C750.7,614,749.9,614.1,749.2,614.1z M972.8,409
		c-29.9,67.2-59.9,134.3-89.7,201.5c-1.2,2.8-2.6,3.8-5.7,3.7c-10-0.2-20-0.1-30.1,0c-2,0-2.9-0.6-3.7-2.4
		c-30.1-67.8-60.3-135.6-90.5-203.4c-0.3-0.6-0.5-1.2-0.8-2.2c11.8,0,23.2,0,34.7,0c25.5,58.1,51.1,116.1,76.9,174.8
		c0.8-1.6,1.3-2.6,1.8-3.7c24.1-56,48.2-112,72.2-168c1-2.4,2.2-3.4,4.9-3.3c10.2,0.2,20.5,0.1,31.1,0.1
		C973.4,407.2,973.2,408.1,972.8,409z M1059.6,614c-10.4,0-20.5,0-30.9,0c0-69.3,0-138.4,0-207.8c10.2,0,20.4,0,30.9,0
		C1059.6,475.4,1059.6,544.5,1059.6,614z M1297.4,614c-0.7,0-1.8-1.4-2.2-2.4c-6.3-16.1-12.6-32.2-18.7-48.4c-1-2.6-2.2-3.3-4.9-3.3
		c-35,0.1-70,0.1-105.1,0c-2.7,0-3.9,0.8-4.9,3.3c-6.6,16.1-13.4,32.2-20.1,48.3c-0.9,2.1-1.9,2.8-4.2,2.8c-11-0.1-22-0.1-33.5-0.1
		c0.6-1.4,1-2.4,1.4-3.4c31.1-67.3,62.2-134.5,93.2-201.8c1-2.1,2-3,4.4-3c10.2,0.2,20.5,0.1,30.7,0c2.1,0,3.2,0.6,4.1,2.6
		c30.6,67.5,61.2,135,91.8,202.5c0.4,0.9,0.7,1.8,1.2,3.1C1319.4,614.1,1308.4,614.2,1297.4,614z"/>
</g>
</svg>
